<?xml version="1.0" encoding="UTF-8" standalone="no"?>
<svg
   xmlns:dc="http://purl.org/dc/elements/1.1/"
   xmlns:cc="http://creativecommons.org/ns#"
   xmlns:rdf="http://www.w3.org/1999/02/22-rdf-syntax-ns#"
   xmlns:svg="http://www.w3.org/2000/svg"
   xmlns="http://www.w3.org/2000/svg"
   xmlns:sodipodi="http://sodipodi.sourceforge.net/DTD/sodipodi-0.dtd"
   xmlns:inkscape="http://www.inkscape.org/namespaces/inkscape"
   version="1.0"
   width="208"
   height="163.89816"
   viewBox="0 0 166.4 131.11853"
   preserveAspectRatio="xMidYMid meet"
   id="svg2"
   inkscape:version="0.48.4 r9939"
   sodipodi:docname="B10Y.svg">
  <defs
     id="defs16" />
  <sodipodi:namedview
     pagecolor="#ffffff"
     bordercolor="#666666"
     borderopacity="1"
     objecttolerance="10"
     gridtolerance="10"
     guidetolerance="10"
     inkscape:pageopacity="0"
     inkscape:pageshadow="2"
     inkscape:window-width="1920"
     inkscape:window-height="1153"
     id="namedview14"
     showgrid="false"
     inkscape:zoom="3.3357945"
     inkscape:cx="83.096877"
     inkscape:cy="101.79502"
     inkscape:window-x="1276"
     inkscape:window-y="-4"
     inkscape:window-maximized="1"
     inkscape:current-layer="svg2"
     fit-margin-top="4"
     fit-margin-left="4"
     fit-margin-right="4"
     fit-margin-bottom="4" />
  <metadata
     id="metadata4">
Created by potrace 1.11, written by Peter Selinger 2001-2013
<rdf:RDF>
  <cc:Work
     rdf:about="">
    <dc:format>image/svg+xml</dc:format>
    <dc:type
       rdf:resource="http://purl.org/dc/dcmitype/StillImage" />
    <dc:title></dc:title>
  </cc:Work>
</rdf:RDF>
</metadata>
  <rect
     style="fill:#e0b300;fill-opacity:1;fill-rule:evenodd;stroke:#000000;stroke-width:1.85561132000000000;stroke-linejoin:miter;stroke-miterlimit:4;stroke-opacity:1;stroke-dasharray:none"
     id="rect2993"
     width="158.14439"
     height="122.86292"
     x="4.1278057"
     y="4.1278057" />
  <g
     transform="matrix(0.08127884,0,0,-0.08127884,4.3527151,126.96073)"
     id="g6"
     style="fill:#000000;stroke:none">
    <path
       d="M 1,1178 C 2,948 5,863 11,904 c 5,32 10,60 12,62 2,2 27,-4 56,-13 l 52,-17 -7,-41 c -6,-35 -7,-215 -1,-299 2,-27 -2,-31 -45,-45 -27,-8 -50,-12 -53,-9 -3,3 -9,32 -14,64 C 5,647 2,562 1,333 L 0,0 443,1 C 700,2 865,6 838,10 664,40 472,157 371,294 271,430 231,547 223,720 c -5,107 -2,138 16,209 37,146 97,254 198,355 108,108 244,182 388,210 64,13 31,14 -377,15 l -448,1 1,-332 z m 334,235 c 19,-21 35,-40 35,-43 0,-3 -21,-27 -45,-55 -45,-49 -126,-179 -139,-222 -8,-26 -32,-28 -86,-8 -40,14 -40,18 -3,95 42,88 174,270 195,270 5,0 25,-17 43,-37 z M 193,396 C 217,337 278,246 334,183 L 381,131 349,90 C 331,68 313,50 309,50 305,50 275,80 242,116 184,181 106,300 77,372 l -16,37 47,15 c 67,20 65,20 85,-28 z"
       id="path8"
       inkscape:connector-curvature="0" />
    <path
       d="m 1110,1495 c 282,-61 494,-255 581,-535 34,-107 34,-311 0,-420 C 1608,267 1373,56 1102,10 1075,6 1240,2 1498,1 l 442,-1 -1,353 c -1,225 -4,328 -9,285 -13,-112 -12,-110 -73,-88 -34,11 -51,23 -48,31 9,35 12,259 4,305 l -10,51 51,16 c 28,9 54,13 58,9 5,-5 12,-42 17,-83 6,-53 9,24 10,279 l 1,352 -447,-1 c -408,-1 -442,-2 -383,-14 z m 570,-78 c 83,-92 201,-291 186,-315 -6,-10 -94,-37 -100,-31 -1,2 -22,40 -45,84 -41,76 -128,195 -143,195 -5,0 -8,6 -8,13 0,15 58,87 70,87 5,0 23,-15 40,-33 z m 144,-993 c 53,-18 53,-20 8,-109 -35,-71 -93,-154 -151,-216 l -49,-54 -27,25 c -52,48 -51,54 15,132 33,40 79,109 103,155 23,46 45,83 48,83 3,0 27,-7 53,-16 z"
       id="path10"
       inkscape:connector-curvature="0" />
    <path
       d="M 845,1386 C 614,1332 447,1190 365,975 329,882 319,700 344,600 393,404 543,230 726,156 c 185,-75 415,-56 581,49 125,79 227,209 274,350 34,99 34,287 2,390 -63,198 -231,364 -428,425 -89,27 -229,35 -310,16 z"
       id="path12"
       inkscape:connector-curvature="0" />
  </g>
</svg>
