<?xml version="1.0" encoding="UTF-8"?>
<!-- Created with Inkscape (http://www.inkscape.org/) -->
<svg width="200" height="200" version="1.1" viewBox="0 0 200 200" xmlns="http://www.w3.org/2000/svg" xmlns:cc="http://creativecommons.org/ns#" xmlns:dc="http://purl.org/dc/elements/1.1/" xmlns:rdf="http://www.w3.org/1999/02/22-rdf-syntax-ns#">
 <metadata>
  <rdf:RDF>
   <cc:Work rdf:about="">
    <dc:format>image/svg+xml</dc:format>
    <dc:type rdf:resource="http://purl.org/dc/dcmitype/StillImage"/>
    <dc:title/>
   </cc:Work>
  </rdf:RDF>
 </metadata>
 <g transform="translate(0 -244.08)">
  <g>
   <rect y="244.08" width="200" height="200" fill="#fa0"/>
   <path d="m140.62 313.58s-1.8749-1.0826-3.75 0-1.875 3.2476-1.875 3.2476v29.51s0 2.1651 1.875 3.2476 3.75-2e-5 3.75-2e-5l25.556-14.755s1.875-1.0825 1.875-3.2476-1.875-3.2476-1.875-3.2476z" fill="#fff" stroke="#fff" stroke-width="7.5"/>
   <path d="m79.375 372.33s-1.8749-1.0826-3.75 0c-1.8751 1.0826-1.875 3.2476-1.875 3.2476v29.51s0 2.1651 1.875 3.2476c1.875 1.0825 3.75-2e-5 3.75-2e-5l25.556-14.755s1.875-1.0825 1.875-3.2476-1.875-3.2476-1.875-3.2476z" fill="#fff" stroke="#fff" stroke-width="7.5"/>
  </g>
  <g fill="none" stroke="#fff" stroke-linecap="round" stroke-width="7.5">
   <path d="m30 390.33h43.75"/>
   <path d="m30 276.58h82.5l-55 55h77.5" stroke-linejoin="round"/>
   <path d="m170 390.33h-45"/>
   <path d="m125 372.83v35"/>
  </g>
 </g>
</svg>
