<?xml version="1.0" encoding="UTF-8" standalone="no"?>
<!-- Created with Inkscape (http://www.inkscape.org/) -->

<svg
   xmlns:dc="http://purl.org/dc/elements/1.1/"
   xmlns:cc="http://creativecommons.org/ns#"
   xmlns:rdf="http://www.w3.org/1999/02/22-rdf-syntax-ns#"
   xmlns:svg="http://www.w3.org/2000/svg"
   xmlns="http://www.w3.org/2000/svg"
   xmlns:sodipodi="http://sodipodi.sourceforge.net/DTD/sodipodi-0.dtd"
   xmlns:inkscape="http://www.inkscape.org/namespaces/inkscape"
   width="205.56754"
   height="208.01054"
   id="svg4329"
   version="1.1"
   inkscape:version="0.48.4 r9939"
   sodipodi:docname="A05.svg">
  <defs
     id="defs4331" />
  <sodipodi:namedview
     id="base"
     pagecolor="#ffffff"
     bordercolor="#666666"
     borderopacity="1.0"
     inkscape:pageopacity="0.0"
     inkscape:pageshadow="2"
     inkscape:zoom="2.8"
     inkscape:cx="102.89039"
     inkscape:cy="81.752221"
     inkscape:document-units="px"
     inkscape:current-layer="layer1"
     showgrid="false"
     fit-margin-top="4"
     fit-margin-left="4"
     fit-margin-right="4"
     fit-margin-bottom="4"
     inkscape:window-width="1920"
     inkscape:window-height="1153"
     inkscape:window-x="1276"
     inkscape:window-y="-4"
     inkscape:window-maximized="1" />
  <metadata
     id="metadata4334">
    <rdf:RDF>
      <cc:Work
         rdf:about="">
        <dc:format>image/svg+xml</dc:format>
        <dc:type
           rdf:resource="http://purl.org/dc/dcmitype/StillImage" />
        <dc:title></dc:title>
      </cc:Work>
    </rdf:RDF>
  </metadata>
  <g
     inkscape:label="Layer 1"
     inkscape:groupmode="layer"
     id="layer1"
     transform="translate(-74.87338,-378.55359)">
    <g
       id="g4969"
       transform="matrix(1.1819333,0,0,1.1819333,-14.351609,-105.98588)">
      <rect
         y="414.80984"
         x="80.211624"
         height="166.41603"
         width="164.50085"
         id="rect4967"
         style="fill:#00a000;fill-opacity:1;fill-rule:evenodd;stroke:#000000;stroke-width:2.65541029;stroke-miterlimit:4;stroke-opacity:1;stroke-dasharray:none" />
      <path
         inkscape:connector-curvature="0"
         id="path3112"
         d="m 80.897322,579.26785 c 0,-1.68928 0.57611,-3.64754 1.28025,-4.35168 1.90225,-1.90224 30.971398,-18.57689 32.385368,-18.57689 0.66899,0 1.47909,0.42513 1.80023,0.94474 0.83826,1.35634 -2.01087,14.26493 -4.02015,18.21415 -3.35475,6.59371 -4.02031,6.84111 -18.403888,6.84111 l -13.04181,0 0,-3.07143 z m 39.280588,0.82143 c 0.28256,-1.2375 1.46002,-4.82626 2.61658,-7.97502 1.47401,-4.01304 2.10283,-8.07842 2.10283,-13.59501 0,-9.16261 -0.31776,-8.73968 11.75,-15.63862 l 8.25,-4.71639 0,-4.24581 c 0,-2.3352 -0.26294,-4.50876 -0.58431,-4.83013 -0.32137,-0.32137 -4.80892,1.88902 -9.97231,4.91199 -5.1634,3.02297 -10.15679,5.34825 -11.09641,5.16729 -2.32833,-0.44839 -6.47934,-15.58686 -6.11607,-22.30495 l 0.2691,-4.97664 9,-5.28338 c 18.1426,-10.65047 18.5,-10.94558 18.5,-15.27578 0,-2.12823 -0.3472,-4.08409 -0.77156,-4.34636 -0.42436,-0.26227 -5.03686,1.95777 -10.25,4.93343 -10.97231,6.26298 -12.49246,6.61473 -11.56218,2.67539 2.35902,-9.98947 2.93673,-17.56076 1.83204,-24.00994 -0.75226,-4.39167 -0.81334,-7.08358 -0.17556,-7.73741 0.53794,-0.55146 5.35413,-3.4881 10.70266,-6.52586 l 9.7246,-5.52321 0.30479,-4.72679 c 0.16764,-2.59974 0.038,-4.72679 -0.28809,-4.72679 -0.32609,0 -5.85666,2.92719 -12.29017,6.50487 -6.4335,3.57768 -12.14397,6.35598 -12.68994,6.17399 -2.04856,-0.68285 -3.6613,-9.18834 -3.25731,-17.17886 0.40411,-7.99291 3.95383,-18.87598 7.22311,-22.14525 1.10935,-1.10935 12.14564,-1.35475 60.92618,-1.35475 l 59.57143,0 -0.16004,37.25 c -0.088,20.4875 -0.34153,35.7875 -0.56336,34 -0.22182,-1.7875 -0.77472,-3.25 -1.22867,-3.25 -0.45394,0 -1.14017,-1.6875 -1.52494,-3.75 -2.16943,-11.62864 -11.44221,-28.36559 -21.35445,-38.54382 -8.5905,-8.82102 -25.69336,-19.29872 -35.55473,-21.78184 -2.5376,-0.63898 -4.61381,-1.55835 -4.61381,-2.04306 0,-0.48471 -1.125,-0.88128 -2.5,-0.88128 -1.375,0 -2.4054,0.3375 -2.28978,0.75 0.11562,0.4125 -1.21447,4.39637 -2.95577,8.85304 -8.19891,20.98432 -11.28531,39.05686 -11.93692,69.89696 -0.44714,21.16328 -0.28295,24.2777 2.05611,38.99999 2.74617,17.2848 7.46036,35.2303 11.19819,42.62821 1.28613,2.54551 2.05862,4.90801 1.71663,5.25 -0.34199,0.34198 0.35321,0.62179 1.54487,0.62179 1.19167,0 2.16667,-0.39658 2.16667,-0.88129 0,-0.4847 2.07621,-1.40408 4.61381,-2.04305 9.55931,-2.40706 23.60567,-10.68111 33.17858,-19.54393 11.09195,-10.26919 22.56403,-29.2538 24.76404,-40.98082 0.36638,-1.953 1.03756,-3.55091 1.4915,-3.55091 0.45395,0 1.00685,-1.4625 1.22867,-3.25 0.22183,-1.7875 0.47534,13.5125 0.56336,34 l 0.16004,37.25 -62.11658,0 -62.11657,0 0.51374,-2.25 z m 58.62101,-13.5 c -2.38776,-6.26021 -6.07635,-20.31536 -8.05265,-30.68413 -1.5677,-8.22501 -2.2325,-16.50388 -2.58958,-32.2483 -0.54387,-23.98041 0.88041,-38.60511 5.67947,-58.31756 3.57288,-14.67581 5.37276,-19 7.90848,-19 4.43158,0 19.70105,8.91594 27.34772,15.96851 9.99984,9.22291 16.09965,18.50918 20.57011,31.31566 4.50101,12.894 5.53525,27.344 2.79065,38.98959 -5.38151,22.83415 -22.21922,43.55586 -43.61751,53.67886 -7.895,3.73493 -8.71626,3.75926 -10.03669,0.29737 z M 80.897322,548.43685 c 0,-12.85 0.2293,-14.98253 1.75,-16.27532 4.05088,-3.44379 23.507438,-13.96481 24.320878,-13.15137 0.48161,0.48161 2.2752,6.4366 3.98576,13.2333 2.58731,10.28039 2.88597,12.57618 1.77673,13.65769 -2.00799,1.95781 -27.732218,16.53348 -29.924688,16.95572 -1.80876,0.34833 -1.90868,-0.40653 -1.90868,-14.42002 z m 0,-43.75748 c 0,-11.87838 0.3502,-16.83314 1.25362,-17.73656 2.77803,-2.77803 29.794848,-17.74105 31.459218,-17.4234 1.49285,0.28492 1.83631,1.57122 2.08562,7.81086 0.39109,9.78804 -4.66144,27.09054 -8.73659,29.91866 -3.94196,2.73569 -23.403038,13.49391 -24.811868,13.71617 -0.95742,0.15105 -1.25,-3.66087 -1.25,-16.28573 z m 0,-60.34008 0,-31 15.91152,0 c 12.176178,0 15.861488,0.29344 15.698428,1.25 -0.11719,0.6875 -1.28915,3.95 -2.60435,7.25 -3.02746,7.59627 -3.29955,21.82736 -0.58879,30.79594 1.29217,4.27519 1.46314,6.14378 0.65162,7.12161 -1.6463,1.98367 -25.616158,15.58245 -27.466368,15.58245 -1.43496,0 -1.60206,-3.2334 -1.60206,-31 z"
         style="fill:#000000" />
    </g>
  </g>
</svg>
