<?xml version="1.0" encoding="UTF-8" standalone="no"?>
<!-- Created with Inkscape (http://www.inkscape.org/) -->

<svg
   xmlns:dc="http://purl.org/dc/elements/1.1/"
   xmlns:cc="http://creativecommons.org/ns#"
   xmlns:rdf="http://www.w3.org/1999/02/22-rdf-syntax-ns#"
   xmlns:svg="http://www.w3.org/2000/svg"
   xmlns="http://www.w3.org/2000/svg"
   xmlns:sodipodi="http://sodipodi.sourceforge.net/DTD/sodipodi-0.dtd"
   xmlns:inkscape="http://www.inkscape.org/namespaces/inkscape"
   width="208.00508"
   height="203.92624"
   id="svg4329"
   version="1.1"
   inkscape:version="0.48.4 r9939"
   sodipodi:docname="A05.svg">
  <defs
     id="defs4331" />
  <sodipodi:namedview
     id="base"
     pagecolor="#ffffff"
     bordercolor="#666666"
     borderopacity="1.0"
     inkscape:pageopacity="0.0"
     inkscape:pageshadow="2"
     inkscape:zoom="2.8"
     inkscape:cx="90.169199"
     inkscape:cy="65.811673"
     inkscape:document-units="px"
     inkscape:current-layer="layer1"
     showgrid="false"
     fit-margin-top="4"
     fit-margin-left="4"
     fit-margin-right="4"
     fit-margin-bottom="4"
     inkscape:window-width="1920"
     inkscape:window-height="1153"
     inkscape:window-x="1276"
     inkscape:window-y="-4"
     inkscape:window-maximized="1" />
  <metadata
     id="metadata4334">
    <rdf:RDF>
      <cc:Work
         rdf:about="">
        <dc:format>image/svg+xml</dc:format>
        <dc:type
           rdf:resource="http://purl.org/dc/dcmitype/StillImage" />
        <dc:title></dc:title>
      </cc:Work>
    </rdf:RDF>
  </metadata>
  <g
     inkscape:label="Layer 1"
     inkscape:groupmode="layer"
     id="layer1"
     transform="translate(-87.594573,-366.69735)">
    <g
       id="g4993"
       transform="matrix(1.1349818,0,0,1.1349818,-12.362666,-76.485476)">
      <rect
         y="395.35489"
         x="92.949821"
         height="169.91855"
         width="173.48997"
         id="rect4991"
         style="fill:#e0b300;fill-opacity:1;fill-rule:evenodd;stroke:#000000;stroke-width:2.72430873;stroke-miterlimit:4;stroke-opacity:1;stroke-dasharray:none" />
      <path
         inkscape:connector-curvature="0"
         id="path3125"
         d="m 93.50714,523.2427 c 0.0962,-29.73359 0.37829,-39.22758 0.97995,-32.98605 1.44725,15.01379 7.88942,30.30865 18.34629,43.55736 11.1422,14.11701 32.40523,27.57398 46.8148,29.6282 l 4.7762,0.68089 2.58725,-5.8152 c 4.78901,-10.76392 8.19796,-24.17832 12.5323,-49.3152 1.72978,-10.03187 1.71925,-44.88267 -0.0171,-56.5 -3.1603,-21.14469 -7.74419,-38.99275 -12.91551,-50.28839 l -2.4581,-5.3692 -5.14062,0.69082 c -14.13156,1.89907 -35.6507,15.21809 -46.12243,28.54693 -11.59636,14.7603 -16.66064,27.91319 -18.83572,48.91984 -0.19932,1.925 -0.43441,-15.0625 -0.52243,-37.75 l -0.16004,-41.25 67.88463,0 67.88462,0 -3.30499,6.25 c -4.72912,8.94314 -6.21392,17.05306 -4.57713,25 0.708,3.4375 1.36054,6.7 1.45008,7.25 0.0983,0.60405 -5.09909,1.19797 -13.12651,1.5 -14.32298,0.53889 -15.1651,0.88131 -15.19539,6.17857 -0.0301,5.26557 1.69634,5.82143 18.08087,5.82143 l 14.95332,0 0.97525,2.5651 c 0.53639,1.4108 0.97525,6.10651 0.97525,10.4349 0,4.32839 -0.43886,9.0241 -0.97525,10.4349 l -0.97525,2.5651 -14.95332,0 c -16.48178,0 -18.09618,0.53527 -18.09618,6 0,5.33106 1.78967,6 16.0523,6 l 12.90944,0 -0.68171,4.75 c -0.93657,6.52576 -0.91532,11.9698 0.0663,17 l 0.82942,4.25 -13.01647,0 c -14.37861,0 -16.15928,0.66117 -16.15928,6 0,5.45696 1.6259,6 17.96444,6 11.48294,0 14.93768,0.30255 15.33699,1.34314 0.28348,0.73873 1.06873,4.67623 1.745,8.75 1.47161,8.86483 0.42172,15.29504 -4.03646,24.72185 l -2.92504,6.18501 -64.54247,0 -64.54246,0 0.13515,-41.75 z m 142.17167,39.96346 c 2.48927,-2.75061 5.4013,-10.0638 6.72643,-16.89256 1.01692,-5.24046 0.94048,-7.34138 -0.50322,-13.83053 -0.93626,-4.2083 -1.55103,-7.80164 -1.36616,-7.98521 0.18487,-0.18358 6.07426,-0.48483 13.08752,-0.66947 l 12.7514,-0.33569 -10e-4,20.75 -0.002,20.75 -16.15499,0 c -15.44822,0 -16.08425,-0.0782 -14.53819,-1.78654 z m -87.01574,-16.13875 c -8.28933,-3.93969 -15.54488,-9.42129 -22.70085,-17.15059 -19.38941,-20.94288 -25.05873,-46.27702 -16.30979,-72.88243 5.80696,-17.65888 19.48392,-33.6139 35.988,-41.98224 4.62846,-2.34685 9.23149,-4.10779 10.22897,-3.91322 3.40131,0.66348 8.0176,18.26946 11.03462,42.08476 2.04643,16.15377 1.59137,48.60507 -0.88021,62.76901 -3.07181,17.60371 -7.63572,33.34874 -9.78662,33.76282 -0.75086,0.14456 -4.15922,-1.06509 -7.57412,-2.68811 z m 101.71676,-35.03276 -14.49216,-0.54195 -0.63952,-3 c -1.03761,-4.86739 -0.94498,-14.71203 0.17642,-18.75 l 1.04143,-3.75 13.37121,0 c 7.35416,0 14.08301,-0.27315 14.95299,-0.60699 1.39632,-0.53582 1.58179,1.04711 1.58179,13.5 0,7.75885 -0.3375,14.01337 -0.75,13.89894 -0.4125,-0.11443 -7.27147,-0.45193 -15.24216,-0.75 z m 2.1338,-37.78982 c -12.23734,-0.31234 -12.35176,-0.33715 -11.68567,-2.53378 1.33806,-4.41263 1.75326,-15.30272 0.72534,-19.0247 -0.78477,-2.84159 -0.75087,-3.90761 0.13374,-4.2059 0.65172,-0.21976 6.47304,-0.5319 12.93626,-0.69365 l 11.75131,-0.2941 -0.001,13.75 c -7.2e-4,7.5625 -0.33881,13.6527 -0.75131,13.53378 -0.4125,-0.11892 -6.31126,-0.35817 -13.10836,-0.53165 z m -2.2411,-37.99913 -14.59947,-0.30474 -1.15053,-3.84015 c -2.5134,-8.38896 -0.73981,-23.36739 3.50262,-29.58062 0.74076,-1.08487 1.34684,-2.99737 1.34684,-4.25 0,-2.25752 0.11838,-2.27749 13.5,-2.27749 l 13.5,0 0,20.5 c 0,11.275 -0.3375,20.40049 -0.75,20.27888 -0.4125,-0.12162 -7.31976,-0.35827 -15.34946,-0.52588 z"
         style="fill:#000000" />
    </g>
  </g>
</svg>
