<?xml version="1.0" encoding="UTF-8" standalone="no"?>
<!-- Created with Inkscape (http://www.inkscape.org/) -->

<svg
   xmlns:dc="http://purl.org/dc/elements/1.1/"
   xmlns:cc="http://creativecommons.org/ns#"
   xmlns:rdf="http://www.w3.org/1999/02/22-rdf-syntax-ns#"
   xmlns:svg="http://www.w3.org/2000/svg"
   xmlns="http://www.w3.org/2000/svg"
   xmlns:sodipodi="http://sodipodi.sourceforge.net/DTD/sodipodi-0.dtd"
   xmlns:inkscape="http://www.inkscape.org/namespaces/inkscape"
   width="208"
   height="134.30779"
   id="svg4329"
   version="1.1"
   inkscape:version="0.48.4 r9939"
   sodipodi:docname="A01.svg">
  <defs
     id="defs4331" />
  <sodipodi:namedview
     id="base"
     pagecolor="#ffffff"
     bordercolor="#666666"
     borderopacity="1.0"
     inkscape:pageopacity="0.0"
     inkscape:pageshadow="2"
     inkscape:zoom="2.8"
     inkscape:cx="130.57173"
     inkscape:cy="52.532108"
     inkscape:document-units="px"
     inkscape:current-layer="layer1"
     showgrid="false"
     fit-margin-top="4"
     fit-margin-left="4"
     fit-margin-right="4"
     fit-margin-bottom="4"
     inkscape:window-width="1920"
     inkscape:window-height="1153"
     inkscape:window-x="1276"
     inkscape:window-y="-4"
     inkscape:window-maximized="1" />
  <metadata
     id="metadata4334">
    <rdf:RDF>
      <cc:Work
         rdf:about="">
        <dc:format>image/svg+xml</dc:format>
        <dc:type
           rdf:resource="http://purl.org/dc/dcmitype/StillImage" />
        <dc:title></dc:title>
      </cc:Work>
    </rdf:RDF>
  </metadata>
  <g
     inkscape:label="Layer 1"
     inkscape:groupmode="layer"
     id="layer1"
     transform="translate(-110.40633,-423.03624)">
    <g
       id="g4374"
       transform="matrix(0.97323604,0,0,0.97323604,3.0620463,14.809951)">
      <rect
         y="425.08179"
         x="115.92265"
         height="126.75901"
         width="202.47328"
         id="rect4372"
         style="fill:#0000ff;fill-opacity:1;fill-rule:evenodd;stroke:#000000;stroke-width:3.02671266;stroke-miterlimit:4;stroke-opacity:1;stroke-dasharray:none" />
      <path
         inkscape:connector-curvature="0"
         id="path3061"
         d="m 117.4093,547.71643 0,-3.35196 36.87149,0 c 40.81639,0 38.50221,0.47911 35.25253,-7.29845 l -1.61896,-3.87473 -35.25253,0 -35.25253,0 0,-7.26257 0,-7.26257 32.89494,0 c 18.09222,0 33.12186,-0.37709 33.3992,-0.83798 0.27734,-0.4609 0.17296,-2.84917 -0.23195,-5.30727 l -0.7362,-4.46927 -32.66299,-0.2962 -32.663,-0.29621 0,-6.66964 0,-6.66963 31.56423,-0.29673 31.56423,-0.29672 0,-5.02793 0,-5.02794 -31.56423,-0.29673 -31.56423,-0.29673 0,-7.22829 0,-7.2283 32.663,-0.2962 32.66299,-0.2962 0.7362,-4.46927 c 0.40491,-2.4581 0.50929,-4.84637 0.23195,-5.30726 -0.27734,-0.4609 -15.30698,-0.83799 -33.3992,-0.83799 l -32.89494,0 0,-7.26257 0,-7.26256 35.16682,0 35.16683,0 1.70467,-3.29647 c 0.93757,-1.81306 1.70466,-4.32703 1.70466,-5.58659 0,-2.26236 -0.44709,-2.29013 -36.87149,-2.29013 l -36.87149,0 0,-2.79329 0,-2.7933 48.324,0.0437 c 41.76966,0.0378 47.84975,0.25013 44.82736,1.56543 -3.58343,1.55947 -4.67782,3.68192 -8.67615,16.82658 -8.03942,26.42985 -7.63001,62.97104 1.02746,91.70512 1.49532,4.96296 3.72046,9.9301 4.94476,11.03807 1.25689,1.13748 5.03689,2.37436 8.68256,2.8411 3.55111,0.45462 -17.3004,0.89252 -46.33672,0.97309 l -52.79327,0.14651 0,-3.35196 z m 127.93291,2.0845 c 34.79087,-4.38053 60.86456,-21.85753 69.7863,-46.77723 l 2.20012,-6.14525 0.0403,27.09497 0.0403,27.09496 -39.94412,-0.14134 c -28.79688,-0.1019 -37.76146,-0.41616 -32.1229,-1.12611 z m -28.22761,-12.8379 c -1.89916,-1.57363 -3.27886,-5.29696 -5.53792,-14.94492 -2.68366,-11.46135 -3.01262,-15.08172 -3.04566,-33.51954 -0.0315,-17.57309 0.34164,-22.31707 2.49021,-31.65977 1.39,-6.04416 3.24459,-12.70617 4.12132,-14.80446 l 1.59404,-3.81509 13.74415,0.0175 c 32.33334,0.0412 55.84782,10.44311 68.9022,30.47972 11.44463,17.56589 8.21479,33.55176 -10.22892,50.62739 -8.21516,7.60578 -21.22333,14.15472 -33.19727,16.7131 -4.60894,0.98476 -14.6648,2.06301 -22.34637,2.39614 -12.54733,0.54414 -14.22348,0.39273 -16.49578,-1.49007 z m 99.17731,-59.48753 c 0,-5.24009 -8.35967,-18.70636 -16.79429,-27.05327 -12.97836,-12.8434 -30.09073,-20.48704 -53.03809,-23.69069 -1.84357,-0.25739 13.36593,-0.5433 33.79888,-0.63538 l 37.15082,-0.16741 0,26.81564 c 0,14.74859 -0.25138,26.81563 -0.55866,26.81563 -0.30726,0 -0.55866,-0.93803 -0.55866,-2.08452 z"
         style="fill:#000000" />
    </g>
  </g>
</svg>
